# xmcd
#
# Track frame offsets:
#	150
#	20625
#	38475
#	55558
#	76303
#	104128
#	122998
#	151923
#	168213
#	188903
#	203023
#	225051
#
# Disc length: 3276 seconds
#
# Revision: 0
# Processed by: cddbd v1.5.2PL0 Copyright (c) Steve Scherf et al.
# Submitted via: dBpowerAMP V4.0
#
DISCID=890cca0c
DTITLE=Anne Haigis - Good days for the blues
DYEAR=2007
DGENRE=Blues
TTITLE0=Can't let go
TTITLE1=Sweet forgiveness
TTITLE2=Simple man
TTITLE3=Love's been rough on me
TTITLE4=Like a rock
TTITLE5=Good day for the blues
TTITLE6=Top of the world
TTITLE7=Chuck E's in love
TTITLE8=When love comes to town
TTITLE9=You got the silver
TTITLE10=Rio esperanza
TTITLE11=Maybe
EXTD=
EXTT0=
EXTT1=
EXTT2=
EXTT3=
EXTT4=
EXTT5=
EXTT6=
EXTT7=
EXTT8=
EXTT9=
EXTT10=
EXTT11=
PLAYORDER=
